font.ufo
<glyph name="N" format="1">
	<unicode hex="004E"/>
	<advance width="725"/>
	<outline>
		<contour>
			<point x="24" y="0" type="line"/>
			<point x="297" y="0" type="line"/>
			<point x="297" y="59" type="line"/>
			<point x="163" y="74" type="line"/>
			<point x="131" y="74" type="line"/>
			<point x="24" y="59" type="line"/>
		</contour>
		<contour>
			<point x="511" y="0" type="line"/>
			<point x="616" y="0" type="line"/>
			<point x="616" y="190" type="line"/>
			<point x="279" y="652" type="line"/>
			<point x="24" y="652" type="line"/>
			<point x="24" y="592" type="line"/>
			<point x="128" y="585" type="line"/>
			<point x="72" y="615" type="line"/>
		</contour>
		<contour>
			<point x="109" y="0" type="line"/>
			<point x="179" y="0" type="line"/>
			<point x="179" y="592" type="line"/>
			<point x="109" y="652" type="line"/>
		</contour>
		<contour>
			<point x="428" y="593" type="line"/>
			<point x="568" y="578" type="line"/>
			<point x="599" y="578" type="line"/>
			<point x="701" y="593" type="line"/>
			<point x="701" y="652" type="line"/>
			<point x="428" y="652" type="line"/>
		</contour>
		<contour>
			<point x="546" y="70" type="line"/>
			<point x="616" y="0" type="line"/>
			<point x="616" y="652" type="line"/>
			<point x="546" y="652" type="line"/>
		</contour>
	</outline>
</glyph>
<glyph name="acute" format="1">
	<unicode hex="00B4"/>
	<advance width="400"/>
	<outline>
		<contour>
			<point x="88" y="587" type="curve"/>
			<point x="131" y="552" type="line"/>
			<point x="151" y="565"/>
			<point x="171" y="579"/>
			<point x="237" y="625" type="curve" smooth="yes"/>
			<point x="281" y="656"/>
			<point x="312" y="685"/>
			<point x="312" y="721" type="curve" smooth="yes"/>
			<point x="312" y="760"/>
			<point x="281" y="784"/>
			<point x="251" y="784" type="curve" smooth="yes"/>
			<point x="212" y="784"/>
			<point x="192" y="762"/>
			<point x="162" y="712" type="curve" smooth="yes"/>
			<point x="115" y="634"/>
			<point x="101" y="611"/>
		</contour>
	</outline>
</glyph>
<glyph name="onequarter" format="1">
	<unicode hex="00BC"/>
	<advance width="880"/>
	<outline>
		<contour>
			<point x="472" y="85" type="line"/>
			<point x="796" y="85" type="line"/>
			<point x="796" y="163" type="line"/>
			<point x="503" y="163" type="line"/>
			<point x="515" y="142" type="line"/>
			<point x="659" y="328" type="line"/>
			<point x="635" y="328" type="line"/>
			<point x="635" y="0" type="line"/>
			<point x="741" y="0" type="line"/>
			<point x="741" y="387" type="line"/>
			<point x="656" y="387" type="line"/>
			<point x="472" y="149" type="line"/>
		</contour>
		<component base="fraction" xOffset="395"/>
		<component base="one.sups" xOffset="-5" yOffset="-163"/>
	</outline>
</glyph>
<glyph name="threequarters" format="1">
	<unicode hex="00BE"/>
	<advance width="880"/>
	<outline>
		<contour>
			<point x="484" y="85" type="line"/>
			<point x="808" y="85" type="line"/>
			<point x="808" y="163" type="line"/>
			<point x="515" y="163" type="line"/>
			<point x="527" y="142" type="line"/>
			<point x="671" y="328" type="line"/>
			<point x="647" y="328" type="line"/>
			<point x="647" y="0" type="line"/>
			<point x="753" y="0" type="line"/>
			<point x="753" y="387" type="line"/>
			<point x="668" y="387" type="line"/>
			<point x="484" y="149" type="line"/>
		</contour>
		<component base="fraction" xOffset="396" yOffset="-10"/>
		<component base="three.sups" xOffset="34" yOffset="-163"/>
	</outline>
</glyph>
<glyph name="Agrave" format="1">
	<unicode hex="00C0"/>
	<advance width="680"/>
	<outline>
		<contour>
			<point x="427" y="729" type="line"/>
			<point x="387" y="768"/>
			<point x="346" y="806"/>
			<point x="309" y="841" type="curve" smooth="yes"/>
			<point x="276" y="872"/>
			<point x="256" y="881"/>
			<point x="230" y="881" type="curve" smooth="yes"/>
			<point x="194" y="881"/>
			<point x="169" y="851"/>
			<point x="169" y="823" type="curve" smooth="yes"/>
			<point x="169" y="804"/>
			<point x="177" y="774"/>
			<point x="230" y="752" type="curve" smooth="yes"/>
			<point x="287" y="728"/>
			<point x="342" y="706"/>
			<point x="396" y="684" type="curve"/>
		</contour>
		<component base="A"/>
	</outline>
</glyph>
<glyph name="Atilde" format="1">
	<unicode hex="00C3"/>
	<advance width="680"/>
	<outline>
		<contour>
			<point x="159" y="714" type="curve"/>
			<point x="206" y="694" type="line"/>
			<point x="218" y="725"/>
			<point x="239" y="744"/>
			<point x="267" y="744" type="curve" smooth="yes"/>
			<point x="292" y="744"/>
			<point x="313" y="730"/>
			<point x="331" y="719" type="curve" smooth="yes"/>
			<point x="352" y="707"/>
			<point x="381" y="695"/>
			<point x="408" y="695" type="curve" smooth="yes"/>
			<point x="464" y="695"/>
			<point x="513" y="747"/>
			<point x="524" y="839" type="curve"/>
			<point x="477" y="859" type="line"/>
			<point x="465" y="827"/>
			<point x="443" y="808"/>
			<point x="415" y="808" type="curve" smooth="yes"/>
			<point x="391" y="808"/>
			<point x="369" y="822"/>
			<point x="351" y="833" type="curve" smooth="yes"/>
			<point x="330" y="845"/>
			<point x="307" y="857"/>
			<point x="278" y="857" type="curve" smooth="yes"/>
			<point x="219" y="857"/>
			<point x="170" y="807"/>
		</contour>
		<component base="A"/>
	</outline>
</glyph>
<glyph name="Ccedilla" format="1">
	<unicode hex="00C7"/>
	<advance width="618"/>
	<outline>
		<contour>
			<point x="322" y="-90" type="line"/>
			<point x="361" y="-92"/>
			<point x="382" y="-106"/>
			<point x="382" y="-135" type="curve" smooth="yes"/>
			<point x="382" y="-156"/>
			<point x="367" y="-170"/>
			<point x="332" y="-170" type="curve" smooth="yes"/>
			<point x="314" y="-170"/>
			<point x="297" y="-167"/>
			<point x="277" y="-160" type="curve"/>
			<point x="265" y="-212" type="line"/>
			<point x="291" y="-222"/>
			<point x="315" y="-227"/>
			<point x="349" y="-227" type="curve" smooth="yes"/>
			<point x="445" y="-227"/>
			<point x="493" y="-188"/>
			<point x="493" y="-135" type="curve" smooth="yes"/>
			<point x="493" y="-92"/>
			<point x="460" y="-53"/>
			<point x="351" y="-43" type="curve"/>
			<point x="386" y="-71" type="line"/>
			<point x="395" y="5" type="line"/>
			<point x="337" y="5" type="line"/>
		</contour>
		<component base="C"/>
	</outline>
</glyph>
<glyph name="Ecircumflex" format="1">
	<unicode hex="00CA"/>
	<advance width="591"/>
	<outline>
		<contour>
			<point x="356" y="882" type="line"/>
			<point x="274" y="882" type="line"/>
			<point x="117" y="715" type="line"/>
			<point x="151" y="675" type="line"/>
			<point x="365" y="792" type="line"/>
			<point x="265" y="792" type="line"/>
			<point x="479" y="675" type="line"/>
			<point x="513" y="715" type="line"/>
		</contour>
		<component base="E"/>
	</outline>
</glyph>
<glyph name="Icircumflex" format="1">
	<unicode hex="00CE"/>
	<advance width="395"/>
	<outline>
		<contour>
			<point x="238" y="882" type="line"/>
			<point x="156" y="882" type="line"/>
			<point x="-1" y="715" type="line"/>
			<point x="33" y="675" type="line"/>
			<point x="247" y="792" type="line"/>
			<point x="147" y="792" type="line"/>
			<point x="361" y="675" type="line"/>
			<point x="395" y="715" type="line"/>
		</contour>
		<component base="I"/>
	</outline>
</glyph>
<glyph name="Ntilde" format="1">
	<unicode hex="00D1"/>
	<advance width="725"/>
	<outline>
		<contour>
			<point x="180" y="714" type="curve"/>
			<point x="227" y="694" type="line"/>
			<point x="239" y="725"/>
			<point x="260" y="744"/>
			<point x="288" y="744" type="curve" smooth="yes"/>
			<point x="313" y="744"/>
			<point x="334" y="730"/>
			<point x="352" y="719" type="curve" smooth="yes"/>
			<point x="373" y="707"/>
			<point x="402" y="695"/>
			<point x="429" y="695" type="curve" smooth="yes"/>
			<point x="485" y="695"/>
			<point x="534" y="747"/>
			<point x="545" y="839" type="curve"/>
			<point x="498" y="859" type="line"/>
			<point x="486" y="827"/>
			<point x="464" y="808"/>
			<point x="436" y="808" type="curve" smooth="yes"/>
			<point x="412" y="808"/>
			<point x="390" y="822"/>
			<point x="372" y="833" type="curve" smooth="yes"/>
			<point x="351" y="845"/>
			<point x="328" y="857"/>
			<point x="299" y="857" type="curve" smooth="yes"/>
			<point x="240" y="857"/>
			<point x="191" y="807"/>
		</contour>
		<component base="N"/>
	</outline>
</glyph>
<glyph name="Ograve" format="1">
	<unicode hex="00D2"/>
	<advance width="700"/>
	<outline>
		<contour>
			<point x="449" y="733" type="line"/>
			<point x="409" y="772"/>
			<point x="368" y="810"/>
			<point x="331" y="845" type="curve" smooth="yes"/>
			<point x="298" y="876"/>
			<point x="278" y="885"/>
			<point x="252" y="885" type="curve" smooth="yes"/>
			<point x="216" y="885"/>
			<point x="191" y="855"/>
			<point x="191" y="827" type="curve" smooth="yes"/>
			<point x="191" y="808"/>
			<point x="199" y="778"/>
			<point x="252" y="756" type="curve" smooth="yes"/>
			<point x="309" y="732"/>
			<point x="364" y="710"/>
			<point x="418" y="688" type="curve"/>
		</contour>
		<component base="O"/>
	</outline>
</glyph>
<glyph name="Oacute" format="1">
	<unicode hex="00D3"/>
	<advance width="700"/>
	<outline>
		<contour>
			<point x="251" y="733" type="curve"/>
			<point x="282" y="688" type="line"/>
			<point x="338" y="712"/>
			<point x="393" y="734"/>
			<point x="450" y="758" type="curve" smooth="yes"/>
			<point x="501" y="779"/>
			<point x="509" y="808"/>
			<point x="509" y="827" type="curve" smooth="yes"/>
			<point x="509" y="855"/>
			<point x="484" y="885"/>
			<point x="448" y="885" type="curve" smooth="yes"/>
			<point x="422" y="885"/>
			<point x="402" y="876"/>
			<point x="368" y="844" type="curve" smooth="yes"/>
			<point x="331" y="809"/>
			<point x="290" y="771"/>
		</contour>
		<component base="O"/>
	</outline>
</glyph>
<glyph name="Otilde" format="1">
	<unicode hex="00D5"/>
	<advance width="700"/>
	<outline>
		<contour>
			<point x="168" y="724" type="curve"/>
			<point x="215" y="704" type="line"/>
			<point x="227" y="735"/>
			<point x="248" y="754"/>
			<point x="276" y="754" type="curve" smooth="yes"/>
			<point x="301" y="754"/>
			<point x="322" y="740"/>
			<point x="340" y="729" type="curve" smooth="yes"/>
			<point x="361" y="717"/>
			<point x="390" y="705"/>
			<point x="417" y="705" type="curve" smooth="yes"/>
			<point x="473" y="705"/>
			<point x="522" y="757"/>
			<point x="533" y="849" type="curve"/>
			<point x="486" y="869" type="line"/>
			<point x="474" y="837"/>
			<point x="452" y="818"/>
			<point x="424" y="818" type="curve" smooth="yes"/>
			<point x="400" y="818"/>
			<point x="378" y="832"/>
			<point x="360" y="843" type="curve" smooth="yes"/>
			<point x="339" y="855"/>
			<point x="316" y="867"/>
			<point x="287" y="867" type="curve" smooth="yes"/>
			<point x="228" y="867"/>
			<point x="179" y="817"/>
		</contour>
		<component base="O"/>
	</outline>
</glyph>
<glyph name="Uacute" format="1">
	<unicode hex="00DA"/>
	<advance width="732"/>
	<outline>
		<contour>
			<point x="297" y="729" type="curve"/>
			<point x="328" y="684" type="line"/>
			<point x="384" y="708"/>
			<point x="439" y="730"/>
			<point x="496" y="754" type="curve" smooth="yes"/>
			<point x="547" y="775"/>
			<point x="555" y="804"/>
			<point x="555" y="823" type="curve" smooth="yes"/>
			<point x="555" y="851"/>
			<point x="530" y="881"/>
			<point x="494" y="881" type="curve" smooth="yes"/>
			<point x="468" y="881"/>
			<point x="448" y="872"/>
			<point x="414" y="840" type="curve" smooth="yes"/>
			<point x="377" y="805"/>
			<point x="336" y="767"/>
		</contour>
		<component base="U"/>
	</outline>
</glyph>
<glyph name="Ucircumflex" format="1">
	<unicode hex="00DB"/>
	<advance width="732"/>
	<outline>
		<contour>
			<point x="457" y="882" type="line"/>
			<point x="375" y="882" type="line"/>
			<point x="218" y="715" type="line"/>
			<point x="252" y="675" type="line"/>
			<point x="466" y="792" type="line"/>
			<point x="366" y="792" type="line"/>
			<point x="580" y="675" type="line"/>
			<point x="614" y="715" type="line"/>
		</contour>
		<component base="U"/>
	</outline>
</glyph>
<glyph name="Yacute" format="1">
	<unicode hex="00DD"/>
	<advance width="621"/>
	<outline>
		<contour>
			<point x="274" y="729" type="curve"/>
			<point x="305" y="684" type="line"/>
			<point x="361" y="708"/>
			<point x="416" y="730"/>
			<point x="473" y="754" type="curve" smooth="yes"/>
			<point x="524" y="775"/>
			<point x="532" y="804"/>
			<point x="532" y="823" type="curve" smooth="yes"/>
			<point x="532" y="851"/>
			<point x="507" y="881"/>
			<point x="471" y="881" type="curve" smooth="yes"/>
			<point x="445" y="881"/>
			<point x="425" y="872"/>
			<point x="391" y="840" type="curve" smooth="yes"/>
			<point x="354" y="805"/>
			<point x="313" y="767"/>
		</contour>
		<component base="Y"/>
	</outline>
</glyph>
<glyph name="adieresis" format="1">
	<unicode hex="00E4"/>
	<advance width="540"/>
	<outline>
		<contour>
			<point x="396" y="567" type="curve" smooth="yes"/>
			<point x="441" y="567"/>
			<point x="480" y="595"/>
			<point x="480" y="646" type="curve" smooth="yes"/>
			<point x="480" y="696"/>
			<point x="441" y="725"/>
			<point x="396" y="725" type="curve" smooth="yes"/>
			<point x="353" y="725"/>
			<point x="312" y="696"/>
			<point x="312" y="646" type="curve" smooth="yes"/>
			<point x="312" y="595"/>
			<point x="353" y="567"/>
		</contour>
		<contour>
			<point x="144" y="567" type="curve" smooth="yes"/>
			<point x="189" y="567"/>
			<point x="228" y="595"/>
			<point x="228" y="646" type="curve" smooth="yes"/>
			<point x="228" y="696"/>
			<point x="189" y="725"/>
			<point x="144" y="725" type="curve" smooth="yes"/>
			<point x="101" y="725"/>
			<point x="60" y="696"/>
			<point x="60" y="646" type="curve" smooth="yes"/>
			<point x="60" y="595"/>
			<point x="101" y="567"/>
		</contour>
		<component base="a"/>
	</outline>
</glyph>
<glyph name="egrave" format="1">
	<unicode hex="00E8"/>
	<advance width="526"/>
	<outline>
		<contour>
			<point x="362" y="587" type="line"/>
			<point x="349" y="612"/>
			<point x="334" y="636"/>
			<point x="287" y="713" type="curve" smooth="yes"/>
			<point x="257" y="762"/>
			<point x="238" y="784"/>
			<point x="199" y="784" type="curve" smooth="yes"/>
			<point x="169" y="784"/>
			<point x="138" y="760"/>
			<point x="138" y="721" type="curve" smooth="yes"/>
			<point x="138" y="685"/>
			<point x="169" y="657"/>
			<point x="213" y="626" type="curve" smooth="yes"/>
			<point x="279" y="579"/>
			<point x="299" y="565"/>
			<point x="319" y="552" type="curve"/>
		</contour>
		<component base="e"/>
	</outline>
</glyph>
<glyph name="ecircumflex" format="1">
	<unicode hex="00EA"/>
	<advance width="526"/>
	<outline>
		<contour>
			<point x="421" y="544" type="line"/>
			<point x="461" y="582" type="line"/>
			<point x="321" y="757" type="line"/>
			<point x="245" y="757" type="line"/>
			<point x="105" y="582" type="line"/>
			<point x="145" y="544" type="line"/>
			<point x="333" y="679" type="line"/>
			<point x="233" y="679" type="line"/>
		</contour>
		<component base="e"/>
	</outline>
</glyph>
<glyph name="edieresis" format="1">
	<unicode hex="00EB"/>
	<advance width="526"/>
	<outline>
		<contour>
			<point x="414" y="567" type="curve" smooth="yes"/>
			<point x="459" y="567"/>
			<point x="498" y="595"/>
			<point x="498" y="646" type="curve" smooth="yes"/>
			<point x="498" y="696"/>
			<point x="459" y="725"/>
			<point x="414" y="725" type="curve" smooth="yes"/>
			<point x="371" y="725"/>
			<point x="330" y="696"/>
			<point x="330" y="646" type="curve" smooth="yes"/>
			<point x="330" y="595"/>
			<point x="371" y="567"/>
		</contour>
		<contour>
			<point x="162" y="567" type="curve" smooth="yes"/>
			<point x="207" y="567"/>
			<point x="246" y="595"/>
			<point x="246" y="646" type="curve" smooth="yes"/>
			<point x="246" y="696"/>
			<point x="207" y="725"/>
			<point x="162" y="725" type="curve" smooth="yes"/>
			<point x="119" y="725"/>
			<point x="78" y="696"/>
			<point x="78" y="646" type="curve" smooth="yes"/>
			<point x="78" y="595"/>
			<point x="119" y="567"/>
		</contour>
		<component base="e"/>
	</outline>
</glyph>
<glyph name="iacute" format="1">
	<unicode hex="00ED"/>
	<advance width="324"/>
	<outline>
		<contour>
			<point x="103" y="587" type="curve"/>
			<point x="146" y="552" type="line"/>
			<point x="166" y="565"/>
			<point x="186" y="579"/>
			<point x="252" y="625" type="curve" smooth="yes"/>
			<point x="296" y="656"/>
			<point x="327" y="685"/>
			<point x="327" y="721" type="curve" smooth="yes"/>
			<point x="327" y="760"/>
			<point x="296" y="784"/>
			<point x="266" y="784" type="curve" smooth="yes"/>
			<point x="227" y="784"/>
			<point x="207" y="762"/>
			<point x="177" y="712" type="curve" smooth="yes"/>
			<point x="130" y="634"/>
			<point x="116" y="611"/>
		</contour>
		<component base="dotlessi"/>
	</outline>
</glyph>
<glyph name="icircumflex" format="1">
	<unicode hex="00EE"/>
	<advance width="324"/>
	<outline>
		<contour>
			<point x="310" y="544" type="line"/>
			<point x="350" y="582" type="line"/>
			<point x="210" y="757" type="line"/>
			<point x="134" y="757" type="line"/>
			<point x="-6" y="582" type="line"/>
			<point x="34" y="544" type="line"/>
			<point x="222" y="679" type="line"/>
			<point x="122" y="679" type="line"/>
		</contour>
		<component base="dotlessi"/>
	</outline>
</glyph>
<glyph name="ntilde" format="1">
	<unicode hex="00F1"/>
	<advance width="620"/>
	<outline>
		<contour>
			<point x="128" y="589" type="curve"/>
			<point x="175" y="569" type="line"/>
			<point x="187" y="600"/>
			<point x="208" y="619"/>
			<point x="236" y="619" type="curve" smooth="yes"/>
			<point x="261" y="619"/>
			<point x="282" y="605"/>
			<point x="300" y="594" type="curve" smooth="yes"/>
			<point x="321" y="582"/>
			<point x="350" y="570"/>
			<point x="377" y="570" type="curve" smooth="yes"/>
			<point x="433" y="570"/>
			<point x="482" y="622"/>
			<point x="493" y="714" type="curve"/>
			<point x="446" y="734" type="line"/>
			<point x="434" y="702"/>
			<point x="412" y="683"/>
			<point x="384" y="683" type="curve" smooth="yes"/>
			<point x="360" y="683"/>
			<point x="338" y="697"/>
			<point x="320" y="708" type="curve" smooth="yes"/>
			<point x="299" y="720"/>
			<point x="276" y="732"/>
			<point x="247" y="732" type="curve" smooth="yes"/>
			<point x="188" y="732"/>
			<point x="139" y="682"/>
		</contour>
		<component base="n"/>
	</outline>
</glyph>
<glyph name="oacute" format="1">
	<unicode hex="00F3"/>
	<advance width="572"/>
	<outline>
		<contour>
			<point x="227" y="587" type="curve"/>
			<point x="270" y="552" type="line"/>
			<point x="290" y="565"/>
			<point x="310" y="579"/>
			<point x="376" y="625" type="curve" smooth="yes"/>
			<point x="420" y="656"/>
			<point x="451" y="685"/>
			<point x="451" y="721" type="curve" smooth="yes"/>
			<point x="451" y="760"/>
			<point x="420" y="784"/>
			<point x="390" y="784" type="curve" smooth="yes"/>
			<point x="351" y="784"/>
			<point x="331" y="762"/>
			<point x="301" y="712" type="curve" smooth="yes"/>
			<point x="254" y="634"/>
			<point x="240" y="611"/>
		</contour>
		<component base="o"/>
	</outline>
</glyph>
<glyph name="otilde" format="1">
	<unicode hex="00F5"/>
	<advance width="572"/>
	<outline>
		<contour>
			<point x="104" y="589" type="curve"/>
			<point x="151" y="569" type="line"/>
			<point x="163" y="600"/>
			<point x="184" y="619"/>
			<point x="212" y="619" type="curve" smooth="yes"/>
			<point x="237" y="619"/>
			<point x="258" y="605"/>
			<point x="276" y="594" type="curve" smooth="yes"/>
			<point x="297" y="582"/>
			<point x="326" y="570"/>
			<point x="353" y="570" type="curve" smooth="yes"/>
			<point x="409" y="570"/>
			<point x="458" y="622"/>
			<point x="469" y="714" type="curve"/>
			<point x="422" y="734" type="line"/>
			<point x="410" y="702"/>
			<point x="388" y="683"/>
			<point x="360" y="683" type="curve" smooth="yes"/>
			<point x="336" y="683"/>
			<point x="314" y="697"/>
			<point x="296" y="708" type="curve" smooth="yes"/>
			<point x="275" y="720"/>
			<point x="252" y="732"/>
			<point x="223" y="732" type="curve" smooth="yes"/>
			<point x="164" y="732"/>
			<point x="115" y="682"/>
		</contour>
		<component base="o"/>
	</outline>
</glyph>
<glyph name="ugrave" format="1">
	<unicode hex="00F9"/>
	<advance width="617"/>
	<outline>
		<contour>
			<point x="387" y="587" type="line"/>
			<point x="374" y="612"/>
			<point x="359" y="636"/>
			<point x="312" y="713" type="curve" smooth="yes"/>
			<point x="282" y="762"/>
			<point x="263" y="784"/>
			<point x="224" y="784" type="curve" smooth="yes"/>
			<point x="194" y="784"/>
			<point x="163" y="760"/>
			<point x="163" y="721" type="curve" smooth="yes"/>
			<point x="163" y="685"/>
			<point x="194" y="657"/>
			<point x="238" y="626" type="curve" smooth="yes"/>
			<point x="304" y="579"/>
			<point x="324" y="565"/>
			<point x="344" y="552" type="curve"/>
		</contour>
		<component base="u"/>
	</outline>
</glyph>
<glyph name="yacute" format="1">
	<unicode hex="00FD"/>
	<advance width="543"/>
	<outline>
		<contour>
			<point x="262" y="587" type="curve"/>
			<point x="305" y="552" type="line"/>
			<point x="325" y="565"/>
			<point x="345" y="579"/>
			<point x="411" y="625" type="curve" smooth="yes"/>
			<point x="455" y="656"/>
			<point x="486" y="685"/>
			<point x="486" y="721" type="curve" smooth="yes"/>
			<point x="486" y="760"/>
			<point x="455" y="784"/>
			<point x="425" y="784" type="curve" smooth="yes"/>
			<point x="386" y="784"/>
			<point x="366" y="762"/>
			<point x="336" y="712" type="curve" smooth="yes"/>
			<point x="289" y="634"/>
			<point x="275" y="611"/>
		</contour>
		<component base="y"/>
	</outline>
</glyph>
<glyph name="Scaron" format="1">
	<unicode hex="0160"/>
	<advance width="553"/>
	<outline>
		<contour>
			<point x="159" y="902" type="line"/>
			<point x="122" y="865" type="line"/>
			<point x="261" y="706" type="line"/>
			<point x="351" y="706" type="line"/>
			<point x="491" y="865" type="line"/>
			<point x="453" y="902" type="line"/>
			<point x="262" y="783" type="line"/>
			<point x="350" y="783" type="line"/>
		</contour>
		<component base="S"/>
	</outline>
</glyph>
<glyph name="scaron" format="1">
	<unicode hex="0161"/>
	<advance width="463"/>
	<outline>
		<contour>
			<point x="114" y="779" type="line"/>
			<point x="70" y="742" type="line"/>
			<point x="196" y="563" type="line"/>
			<point x="286" y="563" type="line"/>
			<point x="412" y="742" type="line"/>
			<point x="368" y="779" type="line"/>
			<point x="197" y="640" type="line"/>
			<point x="285" y="640" type="line"/>
		</contour>
		<component base="s"/>
	</outline>
</glyph>
<glyph name="Zcaron" format="1">
	<unicode hex="017D"/>
	<advance width="568"/>
	<outline>
		<contour>
			<point x="171" y="892" type="line"/>
			<point x="134" y="855" type="line"/>
			<point x="273" y="696" type="line"/>
			<point x="363" y="696" type="line"/>
			<point x="503" y="855" type="line"/>
			<point x="465" y="892" type="line"/>
			<point x="274" y="773" type="line"/>
			<point x="362" y="773" type="line"/>
		</contour>
		<component base="Z"/>
	</outline>
</glyph>
<glyph name="zcaron" format="1">
	<unicode hex="017E"/>
	<advance width="468"/>
	<outline>
		<contour>
			<point x="147" y="779" type="line"/>
			<point x="103" y="742" type="line"/>
			<point x="229" y="563" type="line"/>
			<point x="319" y="563" type="line"/>
			<point x="445" y="742" type="line"/>
			<point x="401" y="779" type="line"/>
			<point x="230" y="640" type="line"/>
			<point x="318" y="640" type="line"/>
		</contour>
		<component base="z"/>
	</outline>
</glyph>
<glyph name="ogonek" format="1">
	<unicode hex="02DB"/>
	<advance width="400"/>
	<outline>
		<contour>
			<point x="69" y="-127" type="curve" smooth="yes"/>
			<point x="69" y="-182"/>
			<point x="110" y="-227"/>
			<point x="187" y="-227" type="curve" smooth="yes"/>
			<point x="244" y="-227"/>
			<point x="297" y="-209"/>
			<point x="331" y="-177" type="curve"/>
			<point x="316" y="-126" type="line"/>
			<point x="302" y="-130"/>
			<point x="287" y="-134"/>
			<point x="261" y="-134" type="curve" smooth="yes"/>
			<point x="217" y="-134"/>
			<point x="189" y="-109"/>
			<point x="189" y="-69" type="curve" smooth="yes"/>
			<point x="189" y="-38"/>
			<point x="201" y="-13"/>
			<point x="240" y="8" type="curve"/>
			<point x="194" y="8" type="line"/>
			<point x="115" y="-22"/>
			<point x="69" y="-62"/>
		</contour>
	</outline>
</glyph>
<glyph name="cent.nostroke" format="1">
	<advance width="560"/>
	<outline>
		<contour>
			<point x="363" y="537" type="line"/>
			<point x="363" y="650" type="line"/>
			<point x="293" y="650" type="line"/>
			<point x="293" y="537" type="line"/>
		</contour>
		<contour>
			<point x="363" y="-45" type="line"/>
			<point x="363" y="97" type="line"/>
			<point x="293" y="97" type="line"/>
			<point x="293" y="-45" type="line"/>
		</contour>
		<component base="c" xOffset="21" yOffset="60"/>
	</outline>
</glyph>
